<svg width="16mm" height="16mm" version="1.1" viewBox="0 0 16 16" xmlns="http://www.w3.org/2000/svg">
 <g>
  <circle cx="8" cy="8" r="7.7249" fill="#fff" stop-color="#000000" stroke-linejoin="round" stroke-width="3" style="paint-order:fill markers stroke"/>
  <g transform="translate(.68893 .22233)" fill="#0077b5">
   <path d="m7.1621 5.1913h-1.6743v5.5035q0 0.47542-0.21187 0.70796-0.21187 0.22738-0.54777 0.22738-0.34106 0-0.5581-0.23254-0.21187-0.23254-0.21187-0.7028v-5.5035h-1.6743q-0.39274 0-0.58394-0.17053-0.1912-0.1757-0.1912-0.45992 0-0.29455 0.19637-0.46509 0.20154-0.17053 0.57877-0.17053h4.8782q0.39791 0 0.58911 0.1757 0.19637 0.1757 0.19637 0.45992 0 0.28422-0.19637 0.45992-0.19637 0.17053-0.58911 0.17053z" style="white-space:pre"/>
   <path d="m8.8811 8.2608h-0.53743v2.434q0 0.48059-0.21187 0.70796-0.21187 0.22738-0.55294 0.22738-0.3669 0-0.56844-0.23771-0.20154-0.23771-0.20154-0.69763v-5.8291q0-0.49609 0.22221-0.7183 0.22221-0.22221 0.7183-0.22221h2.496q0.51676 0 0.88366 0.046509 0.3669 0.041341 0.66146 0.1757 0.35657 0.14986 0.63045 0.42891 0.27388 0.27905 0.41341 0.65112 0.14469 0.3669 0.14469 0.78031 0 0.84749-0.48059 1.3539-0.47542 0.50643-1.4469 0.7183 0.40824 0.21704 0.78031 0.64079t0.66146 0.90433q0.29456 0.47542 0.45475 0.86299 0.16536 0.3824 0.16536 0.5271 0 0.14986-0.09818 0.29972-0.09302 0.14469-0.25838 0.22738-0.16536 0.08785-0.3824 0.08785-0.25838 0-0.43408-0.12402-0.1757-0.11886-0.30489-0.30489-0.12402-0.18603-0.34106-0.54777l-0.61495-1.0232q-0.33073-0.56327-0.59428-0.85783-0.25838-0.29455-0.5271-0.40307-0.26872-0.10852-0.67696-0.10852zm0.8785-3.1833h-1.4159v2.0826h1.3746q0.55294 0 0.93017-0.093017 0.37724-0.098185 0.57361-0.32556 0.20154-0.23254 0.20154-0.63562 0-0.31523-0.1602-0.55294-0.1602-0.24288-0.44442-0.36173-0.26872-0.11369-1.0594-0.11369z" style="white-space:pre"/>
  </g>
 </g>
</svg>
