<svg width="256" height="256" version="1.1" viewBox="0 0 67.733 67.733" xmlns="http://www.w3.org/2000/svg">
 <g>
  <circle cx="33.867" cy="33.867" r="33.867" fill="#fff" stop-color="#000000" stroke-linejoin="round" stroke-width="3" style="paint-order:fill markers stroke"/>
  <path d="m33.371 25.256h-5.5744v18.323q0 1.5829-0.70541 2.3571-0.70541 0.75702-1.8237 0.75702-1.1355 0-1.8581-0.77422-0.70541-0.77422-0.70541-2.3399v-18.323h-5.5744q-1.3076 0-1.9442-0.56777-0.63658-0.58497-0.63658-1.5312 0-0.98069 0.65379-1.5485 0.67099-0.56777 1.927-0.56777h16.242q1.3248 0 1.9614 0.58497 0.65379 0.58497 0.65379 1.5312t-0.65379 1.5312q-0.65379 0.56777-1.9614 0.56777z" fill="#0077b5" style="white-space:pre"/>
  <path d="m39.094 35.475h-1.7893v8.1036q0 1.6001-0.70541 2.3571-0.7054 0.75702-1.8409 0.75702-1.2216 0-1.8926-0.79143-0.67099-0.79143-0.67099-2.3227v-19.407q0-1.6517 0.73982-2.3915t2.3915-0.73982h8.31q1.7205 0 2.9421 0.15485 1.2216 0.13764 2.2022 0.58497 1.1871 0.49895 2.099 1.428 0.91186 0.92907 1.3764 2.1678 0.48174 1.2216 0.48174 2.598 0 2.8216-1.6001 4.5077-1.5829 1.6861-4.8174 2.3915 1.3592 0.72261 2.598 2.1334 1.2388 1.4108 2.2022 3.0109 0.98069 1.5829 1.514 2.8732 0.55056 1.2732 0.55056 1.7549 0 0.49894-0.32688 0.99789-0.3097 0.48174-0.86025 0.75702-0.55056 0.29249-1.2732 0.29249-0.86025 0-1.4452-0.41292-0.58497-0.39571-1.0151-1.0151-0.41292-0.61938-1.1355-1.8237l-2.0474-3.4066q-1.1011-1.8753-1.9786-2.856-0.86025-0.98069-1.7549-1.342-0.89466-0.36131-2.2539-0.36131zm2.9249-10.598h-4.7142v6.9336h4.5765q1.8409 0 3.0969-0.30969 1.256-0.3269 1.9098-1.0839 0.671-0.77423 0.671-2.1162 0-1.0495-0.53336-1.8409-0.53335-0.80864-1.4796-1.2044-0.89466-0.37851-3.527-0.37851z" fill="#0077b5" style="white-space:pre"/>
 </g>
</svg>
